{
  "source": "C:\\Users\\Peter\\Desktop\\stuff\\MIUN\\quantitative_research\\video_compression\\videos\\HEVC_CLASS_B\\Kimono_1920x1080_24.y4m",
  "output": "C:\\Users\\Peter\\Desktop\\stuff\\MIUN\\quantitative_research\\video_compression\\compressed_videos\\HEVC_CLASS_B\\vp9\\1.5\\Kimono_1920x1080_24_vp9.webm",
  "codec": "vp9",
  "ok": "Input #0, yuv4mpegpipe, from 'C:\\Users\\Peter\\Desktop\\stuff\\MIUN\\quantitative_research\\video_compression\\videos\\HEVC_CLASS_B\\Kimono_1920x1080_24.y4m':\n  Duration: 00:00:10.00, start: 0.000000, bitrate: 597198 kb/s\n  Stream #0:0: Video: rawvideo (I420 / 0x30323449), yuv420p(progressive), 1920x1080, 24 fps, 24 tbr, 24 tbn\n[out#0/webm @ 000002b2427b9b00] Codec AVOption b:a (set bitrate (in bits/s)) has not been used for any stream. The most likely reason is either wrong type (e.g. a video option with no video streams) or that it is a private option of some decoder which was not actually used for any stream.\nStream mapping:\n  Stream #0:0 -> #0:0 (rawvideo (native) -> vp9 (libvpx-vp9))\nPress [q] to stop, [?] for help\n[libvpx-vp9 @ 000002b2427bbf40] v1.15.2-100-g40561f514\nOutput #0, webm, to 'C:\\Users\\Peter\\Desktop\\stuff\\MIUN\\quantitative_research\\video_compression\\compressed_videos\\HEVC_CLASS_B\\vp9\\1.5\\Kimono_1920x1080_24_vp9.webm':\n  Metadata:\n    encoder         : Lavf62.3.100\n  Stream #0:0: Video: vp9, yuv420p(tv, progressive), 1920x1080, q=2-31, 1500 kb/s, 24 fps, 1k tbn\n    Metadata:\n      encoder         : Lavc62.11.100 libvpx-vp9\n    Side data:\n      cpb: bitrate max/min/avg: 0/0/0 buffer size: 1500000 vbv_delay: N/A\nframe=    3 fps=0.0 q=55.0 size=       0KiB time=00:00:00.12 bitrate=  30.8kbits/s speed=0.245x elapsed=0:00:00.51    \nframe=   10 fps=9.4 q=54.0 size=       0KiB time=00:00:00.41 bitrate=   9.3kbits/s speed=0.394x elapsed=0:00:01.05    \nframe=   14 fps=8.8 q=53.0 size=       0KiB time=00:00:00.58 bitrate=   6.6kbits/s speed=0.367x elapsed=0:00:01.59    \nframe=   19 fps=9.0 q=53.0 size=       0KiB time=00:00:00.79 bitrate=   4.9kbits/s speed=0.377x elapsed=0:00:02.10    \nframe=   24 fps=9.2 q=51.0 size=       0KiB time=00:00:01.00 bitrate=   3.9kbits/s speed=0.382x elapsed=0:00:02.61    \nframe=   30 fps=9.6 q=52.0 size=       0KiB time=00:00:01.25 bitrate=   3.1kbits/s speed=0.398x elapsed=0:00:03.13    \nframe=   35 fps=9.5 q=51.0 size=       0KiB time=00:00:01.45 bitrate=   2.6kbits/s speed=0.397x elapsed=0:00:03.66    \nframe=   40 fps=9.5 q=52.0 size=       0KiB time=00:00:01.66 bitrate=   2.3kbits/s speed=0.396x elapsed=0:00:04.21    \nframe=   45 fps=9.5 q=50.0 size=       0KiB time=00:00:01.87 bitrate=   2.1kbits/s speed=0.396x elapsed=0:00:04.72    \nframe=   50 fps=9.5 q=50.0 size=       0KiB time=00:00:02.08 bitrate=   1.9kbits/s speed=0.397x elapsed=0:00:05.24    \nframe=   55 fps=9.5 q=50.0 size=       0KiB time=00:00:02.29 bitrate=   1.7kbits/s speed=0.397x elapsed=0:00:05.76    \nframe=   60 fps=9.5 q=51.0 size=       0KiB time=00:00:02.50 bitrate=   1.5kbits/s speed=0.398x elapsed=0:00:06.28    \nframe=   64 fps=9.4 q=51.0 size=       0KiB time=00:00:02.66 bitrate=   1.4kbits/s speed=0.391x elapsed=0:00:06.81    \nframe=   70 fps=9.5 q=51.0 size=       0KiB time=00:00:02.91 bitrate=   1.3kbits/s speed=0.398x elapsed=0:00:07.33    \nframe=   75 fps=9.5 q=50.0 size=       0KiB time=00:00:03.12 bitrate=   1.2kbits/s speed=0.397x elapsed=0:00:07.87    \nframe=   80 fps=9.5 q=50.0 size=       0KiB time=00:00:03.33 bitrate=   1.2kbits/s speed=0.397x elapsed=0:00:08.38    \nframe=   85 fps=9.5 q=50.0 size=       0KiB time=00:00:03.54 bitrate=   1.1kbits/s speed=0.397x elapsed=0:00:08.92    \nframe=   90 fps=9.5 q=51.0 size=       0KiB time=00:00:03.75 bitrate=   1.0kbits/s speed=0.397x elapsed=0:00:09.44    \nframe=   95 fps=9.5 q=37.0 size=       0KiB time=00:00:03.95 bitrate=   1.0kbits/s speed=0.398x elapsed=0:00:09.94    \nframe=  100 fps=9.5 q=49.0 size=       0KiB time=00:00:04.16 bitrate=   0.9kbits/s speed=0.398x elapsed=0:00:10.47    \nframe=  105 fps=9.6 q=49.0 size=       0KiB time=00:00:04.37 bitrate=   0.9kbits/s speed=0.398x elapsed=0:00:10.99    \nframe=  110 fps=9.6 q=49.0 size=       0KiB time=00:00:04.58 bitrate=   0.8kbits/s speed=0.398x elapsed=0:00:11.51    \nframe=  115 fps=9.6 q=47.0 size=       0KiB time=00:00:04.79 bitrate=   0.8kbits/s speed=0.398x elapsed=0:00:12.03    \nframe=  120 fps=9.6 q=49.0 size=       0KiB time=00:00:05.00 bitrate=   0.8kbits/s speed=0.398x elapsed=0:00:12.56    \nframe=  125 fps=9.5 q=47.0 size=     768KiB time=00:00:05.20 bitrate=1208.0kbits/s speed=0.398x elapsed=0:00:13.09    \nframe=  130 fps=9.5 q=50.0 size=     768KiB time=00:00:05.41 bitrate=1161.5kbits/s speed=0.398x elapsed=0:00:13.62    \nframe=  135 fps=9.5 q=35.0 size=     768KiB time=00:00:05.62 bitrate=1118.5kbits/s speed=0.398x elapsed=0:00:14.14    \nframe=  140 fps=9.5 q=46.0 size=     768KiB time=00:00:05.83 bitrate=1078.5kbits/s speed=0.398x elapsed=0:00:14.67    \nframe=  144 fps=9.5 q=46.0 size=     768KiB time=00:00:06.00 bitrate=1048.6kbits/s speed=0.395x elapsed=0:00:15.19    \nframe=  150 fps=9.5 q=39.0 size=     768KiB time=00:00:06.25 bitrate=1006.6kbits/s speed=0.397x elapsed=0:00:15.72    \nframe=  156 fps=9.6 q=41.0 size=     768KiB time=00:00:06.50 bitrate= 967.9kbits/s speed= 0.4x elapsed=0:00:16.24    \nframe=  162 fps=9.7 q=40.0 size=     768KiB time=00:00:06.75 bitrate= 932.1kbits/s speed=0.403x elapsed=0:00:16.76    \nframe=  167 fps=9.7 q=38.0 size=     768KiB time=00:00:06.95 bitrate= 904.2kbits/s speed=0.403x elapsed=0:00:17.27    \nframe=  173 fps=9.7 q=40.0 size=     768KiB time=00:00:07.20 bitrate= 872.8kbits/s speed=0.405x elapsed=0:00:17.81    \nframe=  179 fps=9.8 q=39.0 size=     768KiB time=00:00:07.45 bitrate= 843.5kbits/s speed=0.407x elapsed=0:00:18.33    \nframe=  184 fps=9.8 q=40.0 size=     768KiB time=00:00:07.66 bitrate= 820.6kbits/s speed=0.406x elapsed=0:00:18.86    \nframe=  191 fps=9.9 q=38.0 size=     768KiB time=00:00:07.95 bitrate= 790.5kbits/s speed=0.411x elapsed=0:00:19.38    \nframe=  196 fps=9.8 q=39.0 size=     768KiB time=00:00:08.16 bitrate= 770.4kbits/s speed=0.41x elapsed=0:00:19.90    \nframe=  202 fps=9.9 q=38.0 size=     768KiB time=00:00:08.41 bitrate= 747.5kbits/s speed=0.412x elapsed=0:00:20.41    \nframe=  208 fps=9.9 q=35.0 size=     768KiB time=00:00:08.62 bitrate= 729.4kbits/s speed=0.412x elapsed=0:00:20.94    \nframe=  214 fps= 10 q=37.0 size=     768KiB time=00:00:08.91 bitrate= 705.6kbits/s speed=0.415x elapsed=0:00:21.47    \nframe=  216 fps=9.8 q=36.0 size=     768KiB time=00:00:09.00 bitrate= 699.1kbits/s speed=0.409x elapsed=0:00:21.99    \nframe=  216 fps=9.6 q=36.0 size=     768KiB time=00:00:09.00 bitrate= 699.1kbits/s speed=0.399x elapsed=0:00:22.54    \nframe=  216 fps=9.4 q=36.0 size=     768KiB time=00:00:09.00 bitrate= 699.1kbits/s speed=0.39x elapsed=0:00:23.05    \nframe=  216 fps=9.2 q=36.0 size=     768KiB time=00:00:09.00 bitrate= 699.1kbits/s speed=0.382x elapsed=0:00:23.57    \n[out#0/webm @ 000002b2427b9b00] video:1792KiB audio:0KiB subtitle:0KiB other streams:0KiB global headers:0KiB muxing overhead: 0.123353%\nframe=  240 fps= 10 q=33.0 Lsize=    1795KiB time=00:00:10.00 bitrate=1470.1kbits/s speed=0.421x elapsed=0:00:23.74    \n",
  "seconds": 23.857890844345093,
  "probe_out": {}
}